# xmcd
#
# Track frame offsets:
#	150
#	5245
#	43770
#	52828
#	95355
#	102565
#	128913
#	161945
#	185208
#	234235
#	267880
#
# Disc length: 3745 seconds
#
# Revision: 1
# Processed by: cddbd v1.5PL3 Copyright (c) Steve Scherf et al.
# Submitted via: CDex 1.50Beta5
#
DISCID=980e9f0b
DTITLE=東京楽所 - 雅楽の世界(上) Disc 2
DYEAR=1990
DGENRE=Other
TTITLE0=壱越調音取
TTITLE1=壱越調春過
TTITLE2=太食調音取
TTITLE3=太食調合歓塩
TTITLE4=双調音取
TTITLE5=双調武徳楽
TTITLE6=双調春庭花
TTITLE7=盤渉調蘇莫者破
TTITLE8=高麗壱越調貴徳破・急
TTITLE9=蓑山
TTITLE10=太食調長慶子
EXTD=
EXTT0=
EXTT1=
EXTT2=
EXTT3=
EXTT4=
EXTT5=
EXTT6=
EXTT7=
EXTT8=
EXTT9=
EXTT10=
PLAYORDER=
